<mxfile host="Electron" agent="Mozilla/5.0 (Windows NT 10.0; Win64; x64) AppleWebKit/537.36 (KHTML, like Gecko) draw.io/28.1.2 Chrome/138.0.7204.243 Electron/37.4.0 Safari/537.36" version="28.1.2">
  <diagram id="sz6tsw8fydLeUQbAua1s" name="Page-1">
    <mxGraphModel dx="5219" dy="3272" grid="1" gridSize="9" guides="1" tooltips="1" connect="1" arrows="1" fold="1" page="1" pageScale="1" pageWidth="827" pageHeight="1169" background="none" math="0" shadow="0">
      <root>
        <mxCell id="0" />
        <mxCell id="1" parent="0" />
        <mxCell id="NpZJ7TeURYDDHtTlFA_u-232" value="" style="rounded=0;whiteSpace=wrap;html=1;" parent="1" vertex="1">
          <mxGeometry x="-1251" y="-88" width="108" height="60" as="geometry" />
        </mxCell>
        <mxCell id="NpZJ7TeURYDDHtTlFA_u-233" value="Payment methods" style="text;html=1;align=center;verticalAlign=middle;whiteSpace=wrap;rounded=0;" parent="1" vertex="1">
          <mxGeometry x="-1227" y="-73" width="60" height="30" as="geometry" />
        </mxCell>
        <mxCell id="NpZJ7TeURYDDHtTlFA_u-234" value="" style="ellipse;whiteSpace=wrap;html=1;" parent="1" vertex="1">
          <mxGeometry x="-1437" y="-159" width="63" height="44" as="geometry" />
        </mxCell>
        <mxCell id="NpZJ7TeURYDDHtTlFA_u-235" value="Code" style="ellipse;whiteSpace=wrap;html=1;" parent="1" vertex="1">
          <mxGeometry x="-1437" y="-80" width="63" height="44" as="geometry" />
        </mxCell>
        <mxCell id="NpZJ7TeURYDDHtTlFA_u-236" value="" style="ellipse;whiteSpace=wrap;html=1;" parent="1" vertex="1">
          <mxGeometry x="-1435.5" y="-19" width="63" height="44" as="geometry" />
        </mxCell>
        <mxCell id="NpZJ7TeURYDDHtTlFA_u-237" value="ID" style="text;html=1;align=center;verticalAlign=middle;whiteSpace=wrap;rounded=0;" parent="1" vertex="1">
          <mxGeometry x="-1435.5" y="-152" width="60" height="30" as="geometry" />
        </mxCell>
        <mxCell id="NpZJ7TeURYDDHtTlFA_u-239" value="Name" style="text;html=1;align=center;verticalAlign=middle;whiteSpace=wrap;rounded=0;" parent="1" vertex="1">
          <mxGeometry x="-1435.5" y="-12" width="60" height="30" as="geometry" />
        </mxCell>
        <mxCell id="NpZJ7TeURYDDHtTlFA_u-243" value="" style="endArrow=none;html=1;rounded=0;exitX=1;exitY=0.5;exitDx=0;exitDy=0;entryX=0;entryY=1;entryDx=0;entryDy=0;" parent="1" source="NpZJ7TeURYDDHtTlFA_u-239" target="NpZJ7TeURYDDHtTlFA_u-232" edge="1">
          <mxGeometry width="50" height="50" relative="1" as="geometry">
            <mxPoint x="-684" y="203" as="sourcePoint" />
            <mxPoint x="-634" y="153" as="targetPoint" />
          </mxGeometry>
        </mxCell>
        <mxCell id="NpZJ7TeURYDDHtTlFA_u-244" value="" style="endArrow=none;html=1;rounded=0;exitX=1;exitY=0.5;exitDx=0;exitDy=0;entryX=0;entryY=0.5;entryDx=0;entryDy=0;" parent="1" source="NpZJ7TeURYDDHtTlFA_u-235" target="NpZJ7TeURYDDHtTlFA_u-232" edge="1">
          <mxGeometry width="50" height="50" relative="1" as="geometry">
            <mxPoint x="-1206" y="6" as="sourcePoint" />
            <mxPoint x="-1156" y="-44" as="targetPoint" />
          </mxGeometry>
        </mxCell>
        <mxCell id="NpZJ7TeURYDDHtTlFA_u-245" value="" style="endArrow=none;html=1;rounded=0;exitX=1;exitY=0.5;exitDx=0;exitDy=0;entryX=0;entryY=0;entryDx=0;entryDy=0;" parent="1" source="NpZJ7TeURYDDHtTlFA_u-237" target="NpZJ7TeURYDDHtTlFA_u-232" edge="1">
          <mxGeometry width="50" height="50" relative="1" as="geometry">
            <mxPoint x="-1206" y="6" as="sourcePoint" />
            <mxPoint x="-1156" y="-44" as="targetPoint" />
          </mxGeometry>
        </mxCell>
        <mxCell id="NpZJ7TeURYDDHtTlFA_u-246" value="Payment" style="rounded=0;whiteSpace=wrap;html=1;" parent="1" vertex="1">
          <mxGeometry x="-467" y="152.5" width="108" height="60" as="geometry" />
        </mxCell>
        <mxCell id="NpZJ7TeURYDDHtTlFA_u-248" value="Uses" style="rhombus;whiteSpace=wrap;html=1;" parent="1" vertex="1">
          <mxGeometry x="-882" y="29" width="71" height="62" as="geometry" />
        </mxCell>
        <mxCell id="NpZJ7TeURYDDHtTlFA_u-251" value="" style="endArrow=none;html=1;rounded=0;exitX=1;exitY=0.5;exitDx=0;exitDy=0;entryX=0;entryY=0.5;entryDx=0;entryDy=0;" parent="1" source="NpZJ7TeURYDDHtTlFA_u-232" target="NpZJ7TeURYDDHtTlFA_u-248" edge="1">
          <mxGeometry width="50" height="50" relative="1" as="geometry">
            <mxPoint x="-576" y="203" as="sourcePoint" />
            <mxPoint x="-526" y="153" as="targetPoint" />
          </mxGeometry>
        </mxCell>
        <mxCell id="NpZJ7TeURYDDHtTlFA_u-252" value="" style="endArrow=none;html=1;rounded=0;exitX=1;exitY=0.5;exitDx=0;exitDy=0;entryX=0;entryY=0.5;entryDx=0;entryDy=0;" parent="1" source="NpZJ7TeURYDDHtTlFA_u-248" target="NpZJ7TeURYDDHtTlFA_u-246" edge="1">
          <mxGeometry width="50" height="50" relative="1" as="geometry">
            <mxPoint x="-486" y="135" as="sourcePoint" />
            <mxPoint x="-432" y="135" as="targetPoint" />
          </mxGeometry>
        </mxCell>
        <mxCell id="NpZJ7TeURYDDHtTlFA_u-253" value="&lt;font style=&quot;font-size: 9px;&quot;&gt;Payment_&lt;/font&gt;&lt;div&gt;&lt;font style=&quot;font-size: 9px;&quot;&gt;method_ID&lt;/font&gt;&lt;/div&gt;" style="ellipse;whiteSpace=wrap;html=1;" parent="1" vertex="1">
          <mxGeometry x="-576" y="-19" width="63" height="44" as="geometry" />
        </mxCell>
        <mxCell id="NpZJ7TeURYDDHtTlFA_u-254" value="ID" style="ellipse;whiteSpace=wrap;html=1;" parent="1" vertex="1">
          <mxGeometry x="-531" y="-72" width="63" height="44" as="geometry" />
        </mxCell>
        <mxCell id="NpZJ7TeURYDDHtTlFA_u-255" value="Order_ID" style="ellipse;whiteSpace=wrap;html=1;" parent="1" vertex="1">
          <mxGeometry x="-459" y="-99" width="63" height="44" as="geometry" />
        </mxCell>
        <mxCell id="NpZJ7TeURYDDHtTlFA_u-261" value="Paid_at" style="ellipse;whiteSpace=wrap;html=1;" parent="1" vertex="1">
          <mxGeometry x="-270" y="-28" width="63" height="44" as="geometry" />
        </mxCell>
        <mxCell id="NpZJ7TeURYDDHtTlFA_u-262" value="&lt;font style=&quot;font-size: 9px;&quot;&gt;Transaction&lt;/font&gt;&lt;div&gt;&lt;font style=&quot;font-size: 9px;&quot;&gt;_ref&lt;/font&gt;&lt;/div&gt;" style="ellipse;whiteSpace=wrap;html=1;" parent="1" vertex="1">
          <mxGeometry x="-315" y="-72" width="63" height="44" as="geometry" />
        </mxCell>
        <mxCell id="NpZJ7TeURYDDHtTlFA_u-263" value="status" style="ellipse;whiteSpace=wrap;html=1;" parent="1" vertex="1">
          <mxGeometry x="-387" y="-99" width="63" height="44" as="geometry" />
        </mxCell>
        <mxCell id="NpZJ7TeURYDDHtTlFA_u-267" value="Created_at" style="ellipse;whiteSpace=wrap;html=1;" parent="1" vertex="1">
          <mxGeometry x="-270" y="38" width="63" height="44" as="geometry" />
        </mxCell>
        <mxCell id="NpZJ7TeURYDDHtTlFA_u-269" value="&lt;font style=&quot;font-size: 9px;&quot;&gt;Amount&lt;/font&gt;&lt;div&gt;&lt;font style=&quot;font-size: 9px;&quot;&gt;_decimal&lt;/font&gt;&lt;/div&gt;" style="ellipse;whiteSpace=wrap;html=1;" parent="1" vertex="1">
          <mxGeometry x="-594" y="38" width="63" height="44" as="geometry" />
        </mxCell>
        <mxCell id="NpZJ7TeURYDDHtTlFA_u-271" value="" style="endArrow=none;html=1;rounded=0;exitX=1;exitY=1;exitDx=0;exitDy=0;" parent="1" source="NpZJ7TeURYDDHtTlFA_u-269" edge="1">
          <mxGeometry width="50" height="50" relative="1" as="geometry">
            <mxPoint x="-477" y="95" as="sourcePoint" />
            <mxPoint x="-468" y="153" as="targetPoint" />
          </mxGeometry>
        </mxCell>
        <mxCell id="NpZJ7TeURYDDHtTlFA_u-273" value="" style="endArrow=none;html=1;rounded=0;exitX=1;exitY=1;exitDx=0;exitDy=0;entryX=0.083;entryY=-0.017;entryDx=0;entryDy=0;entryPerimeter=0;" parent="1" source="NpZJ7TeURYDDHtTlFA_u-253" target="NpZJ7TeURYDDHtTlFA_u-246" edge="1">
          <mxGeometry width="50" height="50" relative="1" as="geometry">
            <mxPoint x="-477" y="36" as="sourcePoint" />
            <mxPoint x="-374" y="70" as="targetPoint" />
          </mxGeometry>
        </mxCell>
        <mxCell id="NpZJ7TeURYDDHtTlFA_u-274" value="" style="endArrow=none;html=1;rounded=0;exitX=0.773;exitY=0.894;exitDx=0;exitDy=0;entryX=0.195;entryY=0.002;entryDx=0;entryDy=0;entryPerimeter=0;exitPerimeter=0;" parent="1" source="NpZJ7TeURYDDHtTlFA_u-254" target="NpZJ7TeURYDDHtTlFA_u-246" edge="1">
          <mxGeometry width="50" height="50" relative="1" as="geometry">
            <mxPoint x="-468" y="18" as="sourcePoint" />
            <mxPoint x="-365" y="52" as="targetPoint" />
          </mxGeometry>
        </mxCell>
        <mxCell id="NpZJ7TeURYDDHtTlFA_u-275" value="" style="endArrow=none;html=1;rounded=0;exitX=0.629;exitY=0.967;exitDx=0;exitDy=0;exitPerimeter=0;" parent="1" source="NpZJ7TeURYDDHtTlFA_u-255" edge="1">
          <mxGeometry width="50" height="50" relative="1" as="geometry">
            <mxPoint x="-423" y="-27" as="sourcePoint" />
            <mxPoint x="-432" y="153" as="targetPoint" />
          </mxGeometry>
        </mxCell>
        <mxCell id="NpZJ7TeURYDDHtTlFA_u-276" value="" style="endArrow=none;html=1;rounded=0;exitX=0.325;exitY=0.967;exitDx=0;exitDy=0;entryX=0.453;entryY=0.011;entryDx=0;entryDy=0;entryPerimeter=0;exitPerimeter=0;" parent="1" source="NpZJ7TeURYDDHtTlFA_u-263" target="NpZJ7TeURYDDHtTlFA_u-246" edge="1">
          <mxGeometry width="50" height="50" relative="1" as="geometry">
            <mxPoint x="-360" as="sourcePoint" />
            <mxPoint x="-257" y="34" as="targetPoint" />
          </mxGeometry>
        </mxCell>
        <mxCell id="NpZJ7TeURYDDHtTlFA_u-277" value="" style="endArrow=none;html=1;rounded=0;exitX=0.213;exitY=0.859;exitDx=0;exitDy=0;exitPerimeter=0;entryX=0.5;entryY=0;entryDx=0;entryDy=0;" parent="1" source="NpZJ7TeURYDDHtTlFA_u-262" target="NpZJ7TeURYDDHtTlFA_u-246" edge="1">
          <mxGeometry width="50" height="50" relative="1" as="geometry">
            <mxPoint x="-333" y="36" as="sourcePoint" />
            <mxPoint x="-378" y="108" as="targetPoint" />
          </mxGeometry>
        </mxCell>
        <mxCell id="NpZJ7TeURYDDHtTlFA_u-278" value="" style="endArrow=none;html=1;rounded=0;exitX=0.002;exitY=0.692;exitDx=0;exitDy=0;exitPerimeter=0;entryX=0.629;entryY=-0.009;entryDx=0;entryDy=0;entryPerimeter=0;" parent="1" source="NpZJ7TeURYDDHtTlFA_u-261" target="NpZJ7TeURYDDHtTlFA_u-246" edge="1">
          <mxGeometry width="50" height="50" relative="1" as="geometry">
            <mxPoint x="-306" y="36" as="sourcePoint" />
            <mxPoint x="-369" y="108" as="targetPoint" />
          </mxGeometry>
        </mxCell>
        <mxCell id="NpZJ7TeURYDDHtTlFA_u-279" value="" style="endArrow=none;html=1;rounded=0;exitX=0.838;exitY=0.011;exitDx=0;exitDy=0;entryX=0.028;entryY=0.803;entryDx=0;entryDy=0;entryPerimeter=0;exitPerimeter=0;" parent="1" source="NpZJ7TeURYDDHtTlFA_u-246" target="NpZJ7TeURYDDHtTlFA_u-267" edge="1">
          <mxGeometry width="50" height="50" relative="1" as="geometry">
            <mxPoint x="-297" y="81" as="sourcePoint" />
            <mxPoint x="-194" y="115" as="targetPoint" />
          </mxGeometry>
        </mxCell>
        <mxCell id="NpZJ7TeURYDDHtTlFA_u-280" value="deliveries" style="rounded=0;whiteSpace=wrap;html=1;" parent="1" vertex="1">
          <mxGeometry x="-1134" y="126" width="108" height="60" as="geometry" />
        </mxCell>
        <mxCell id="NpZJ7TeURYDDHtTlFA_u-281" value="Order items" style="rounded=0;whiteSpace=wrap;html=1;" parent="1" vertex="1">
          <mxGeometry x="-935" y="357.5" width="108" height="60" as="geometry" />
        </mxCell>
        <mxCell id="pRgywR5T7a0eV_t_xnRR-92" style="edgeStyle=orthogonalEdgeStyle;rounded=0;orthogonalLoop=1;jettySize=auto;html=1;exitX=1;exitY=0.5;exitDx=0;exitDy=0;entryX=0;entryY=0.5;entryDx=0;entryDy=0;endArrow=none;endFill=0;" parent="1" source="NpZJ7TeURYDDHtTlFA_u-282" target="pRgywR5T7a0eV_t_xnRR-91" edge="1">
          <mxGeometry relative="1" as="geometry" />
        </mxCell>
        <mxCell id="pRgywR5T7a0eV_t_xnRR-104" style="edgeStyle=orthogonalEdgeStyle;rounded=0;orthogonalLoop=1;jettySize=auto;html=1;exitX=0.5;exitY=1;exitDx=0;exitDy=0;entryX=0.5;entryY=0;entryDx=0;entryDy=0;endArrow=none;endFill=0;" parent="1" source="NpZJ7TeURYDDHtTlFA_u-282" target="pRgywR5T7a0eV_t_xnRR-103" edge="1">
          <mxGeometry relative="1" as="geometry" />
        </mxCell>
        <mxCell id="NpZJ7TeURYDDHtTlFA_u-282" value="orders" style="rounded=0;whiteSpace=wrap;html=1;" parent="1" vertex="1">
          <mxGeometry x="27" y="243" width="108" height="60" as="geometry" />
        </mxCell>
        <mxCell id="pRgywR5T7a0eV_t_xnRR-126" style="edgeStyle=orthogonalEdgeStyle;rounded=0;orthogonalLoop=1;jettySize=auto;html=1;exitX=0.5;exitY=0;exitDx=0;exitDy=0;entryX=0.5;entryY=1;entryDx=0;entryDy=0;endArrow=none;endFill=0;" parent="1" source="NpZJ7TeURYDDHtTlFA_u-284" target="pRgywR5T7a0eV_t_xnRR-125" edge="1">
          <mxGeometry relative="1" as="geometry">
            <Array as="points">
              <mxPoint x="-1206" y="603" />
              <mxPoint x="-882" y="603" />
              <mxPoint x="-882" y="494" />
            </Array>
          </mxGeometry>
        </mxCell>
        <mxCell id="NpZJ7TeURYDDHtTlFA_u-284" value="Products" style="rounded=0;whiteSpace=wrap;html=1;" parent="1" vertex="1">
          <mxGeometry x="-1260" y="738" width="108" height="60" as="geometry" />
        </mxCell>
        <mxCell id="NpZJ7TeURYDDHtTlFA_u-285" value="" style="endArrow=none;html=1;rounded=0;exitX=1;exitY=0.5;exitDx=0;exitDy=0;entryX=0;entryY=0.5;entryDx=0;entryDy=0;" parent="1" source="NpZJ7TeURYDDHtTlFA_u-246" target="NpZJ7TeURYDDHtTlFA_u-287" edge="1">
          <mxGeometry width="50" height="50" relative="1" as="geometry">
            <mxPoint x="-270" y="181" as="sourcePoint" />
            <mxPoint x="-207" y="139" as="targetPoint" />
          </mxGeometry>
        </mxCell>
        <mxCell id="NpZJ7TeURYDDHtTlFA_u-287" value="Pays for" style="rhombus;whiteSpace=wrap;html=1;" parent="1" vertex="1">
          <mxGeometry x="-225" y="273" width="71" height="62" as="geometry" />
        </mxCell>
        <mxCell id="NpZJ7TeURYDDHtTlFA_u-288" value="" style="endArrow=none;html=1;rounded=0;exitX=1;exitY=0.5;exitDx=0;exitDy=0;entryX=0;entryY=0.5;entryDx=0;entryDy=0;" parent="1" source="NpZJ7TeURYDDHtTlFA_u-287" target="NpZJ7TeURYDDHtTlFA_u-282" edge="1">
          <mxGeometry width="50" height="50" relative="1" as="geometry">
            <mxPoint x="-90" y="126" as="sourcePoint" />
            <mxPoint x="-54" y="216" as="targetPoint" />
          </mxGeometry>
        </mxCell>
        <mxCell id="NpZJ7TeURYDDHtTlFA_u-289" value="" style="endArrow=none;html=1;rounded=0;exitX=1;exitY=0.5;exitDx=0;exitDy=0;entryX=0;entryY=0.5;entryDx=0;entryDy=0;" parent="1" source="NpZJ7TeURYDDHtTlFA_u-280" target="NpZJ7TeURYDDHtTlFA_u-287" edge="1">
          <mxGeometry width="50" height="50" relative="1" as="geometry">
            <mxPoint x="-234" y="324" as="sourcePoint" />
            <mxPoint x="-54" y="423" as="targetPoint" />
          </mxGeometry>
        </mxCell>
        <mxCell id="NpZJ7TeURYDDHtTlFA_u-290" value="" style="endArrow=none;html=1;rounded=0;exitX=1;exitY=0.5;exitDx=0;exitDy=0;entryX=0;entryY=0.5;entryDx=0;entryDy=0;" parent="1" source="NpZJ7TeURYDDHtTlFA_u-281" target="NpZJ7TeURYDDHtTlFA_u-287" edge="1">
          <mxGeometry width="50" height="50" relative="1" as="geometry">
            <mxPoint x="-243" y="333" as="sourcePoint" />
            <mxPoint x="-153" y="243" as="targetPoint" />
          </mxGeometry>
        </mxCell>
        <mxCell id="NpZJ7TeURYDDHtTlFA_u-291" value="" style="endArrow=none;html=1;rounded=0;exitX=1;exitY=0.5;exitDx=0;exitDy=0;entryX=0;entryY=0.5;entryDx=0;entryDy=0;" parent="1" source="NpZJ7TeURYDDHtTlFA_u-284" target="NpZJ7TeURYDDHtTlFA_u-287" edge="1">
          <mxGeometry width="50" height="50" relative="1" as="geometry">
            <mxPoint x="-234" y="405" as="sourcePoint" />
            <mxPoint x="-54" y="504" as="targetPoint" />
          </mxGeometry>
        </mxCell>
        <mxCell id="pRgywR5T7a0eV_t_xnRR-7" style="rounded=0;orthogonalLoop=1;jettySize=auto;html=1;exitX=1;exitY=0;exitDx=0;exitDy=0;entryX=0.25;entryY=1;entryDx=0;entryDy=0;endArrow=none;endFill=0;" parent="1" source="NpZJ7TeURYDDHtTlFA_u-292" target="NpZJ7TeURYDDHtTlFA_u-280" edge="1">
          <mxGeometry relative="1" as="geometry" />
        </mxCell>
        <mxCell id="NpZJ7TeURYDDHtTlFA_u-292" value="Delivery_status" style="ellipse;whiteSpace=wrap;html=1;" parent="1" vertex="1">
          <mxGeometry x="-1266" y="335" width="63" height="44" as="geometry" />
        </mxCell>
        <mxCell id="pRgywR5T7a0eV_t_xnRR-6" style="rounded=0;orthogonalLoop=1;jettySize=auto;html=1;exitX=1.016;exitY=0.364;exitDx=0;exitDy=0;exitPerimeter=0;endArrow=none;endFill=0;entryX=0;entryY=1;entryDx=0;entryDy=0;" parent="1" source="NpZJ7TeURYDDHtTlFA_u-293" target="NpZJ7TeURYDDHtTlFA_u-280" edge="1">
          <mxGeometry relative="1" as="geometry">
            <mxPoint x="-1068" y="200" as="targetPoint" />
          </mxGeometry>
        </mxCell>
        <mxCell id="NpZJ7TeURYDDHtTlFA_u-293" value="Delivered_at" style="ellipse;whiteSpace=wrap;html=1;" parent="1" vertex="1">
          <mxGeometry x="-1320" y="291" width="63" height="44" as="geometry" />
        </mxCell>
        <mxCell id="pRgywR5T7a0eV_t_xnRR-3" style="rounded=0;orthogonalLoop=1;jettySize=auto;html=1;exitX=1;exitY=0.5;exitDx=0;exitDy=0;endArrow=none;endFill=0;" parent="1" source="NpZJ7TeURYDDHtTlFA_u-294" target="NpZJ7TeURYDDHtTlFA_u-280" edge="1">
          <mxGeometry relative="1" as="geometry" />
        </mxCell>
        <mxCell id="NpZJ7TeURYDDHtTlFA_u-294" value="Order_ID" style="ellipse;whiteSpace=wrap;html=1;" parent="1" vertex="1">
          <mxGeometry x="-1353" y="109" width="63" height="44" as="geometry" />
        </mxCell>
        <mxCell id="pRgywR5T7a0eV_t_xnRR-4" style="rounded=0;orthogonalLoop=1;jettySize=auto;html=1;exitX=1;exitY=0.5;exitDx=0;exitDy=0;entryX=0;entryY=0.75;entryDx=0;entryDy=0;endArrow=none;endFill=0;" parent="1" source="NpZJ7TeURYDDHtTlFA_u-295" target="NpZJ7TeURYDDHtTlFA_u-280" edge="1">
          <mxGeometry relative="1" as="geometry" />
        </mxCell>
        <mxCell id="NpZJ7TeURYDDHtTlFA_u-295" value="Tracking_&lt;div&gt;number&lt;/div&gt;" style="ellipse;whiteSpace=wrap;html=1;" parent="1" vertex="1">
          <mxGeometry x="-1356" y="172" width="63" height="44" as="geometry" />
        </mxCell>
        <mxCell id="pRgywR5T7a0eV_t_xnRR-1" style="rounded=0;orthogonalLoop=1;jettySize=auto;html=1;exitX=1;exitY=1;exitDx=0;exitDy=0;endArrow=none;endFill=0;entryX=0;entryY=0;entryDx=0;entryDy=0;" parent="1" source="NpZJ7TeURYDDHtTlFA_u-296" target="NpZJ7TeURYDDHtTlFA_u-280" edge="1">
          <mxGeometry relative="1" as="geometry">
            <mxPoint x="-1113" y="119" as="targetPoint" />
          </mxGeometry>
        </mxCell>
        <mxCell id="NpZJ7TeURYDDHtTlFA_u-296" value="ID" style="ellipse;whiteSpace=wrap;html=1;" parent="1" vertex="1">
          <mxGeometry x="-1239" y="38" width="63" height="44" as="geometry" />
        </mxCell>
        <mxCell id="pRgywR5T7a0eV_t_xnRR-2" style="rounded=0;orthogonalLoop=1;jettySize=auto;html=1;exitX=1;exitY=1;exitDx=0;exitDy=0;entryX=0;entryY=0.25;entryDx=0;entryDy=0;endArrow=none;endFill=0;" parent="1" source="NpZJ7TeURYDDHtTlFA_u-297" target="NpZJ7TeURYDDHtTlFA_u-280" edge="1">
          <mxGeometry relative="1" as="geometry" />
        </mxCell>
        <mxCell id="NpZJ7TeURYDDHtTlFA_u-297" value="Carrrier" style="ellipse;whiteSpace=wrap;html=1;strokeColor=default;" parent="1" vertex="1">
          <mxGeometry x="-1311" y="56" width="63" height="44" as="geometry" />
        </mxCell>
        <mxCell id="NpZJ7TeURYDDHtTlFA_u-298" value="Shipped_at" style="ellipse;whiteSpace=wrap;html=1;" parent="1" vertex="1">
          <mxGeometry x="-1347" y="229" width="63" height="44" as="geometry" />
        </mxCell>
        <mxCell id="NpZJ7TeURYDDHtTlFA_u-299" value="Created_at" style="ellipse;whiteSpace=wrap;html=1;" parent="1" vertex="1">
          <mxGeometry x="-1185" y="344" width="63" height="44" as="geometry" />
        </mxCell>
        <mxCell id="pRgywR5T7a0eV_t_xnRR-5" style="rounded=0;orthogonalLoop=1;jettySize=auto;html=1;exitX=1;exitY=0.5;exitDx=0;exitDy=0;entryX=0;entryY=0.9;entryDx=0;entryDy=0;entryPerimeter=0;endArrow=none;endFill=0;" parent="1" source="NpZJ7TeURYDDHtTlFA_u-298" target="NpZJ7TeURYDDHtTlFA_u-280" edge="1">
          <mxGeometry relative="1" as="geometry" />
        </mxCell>
        <mxCell id="pRgywR5T7a0eV_t_xnRR-8" style="rounded=0;orthogonalLoop=1;jettySize=auto;html=1;entryX=0.426;entryY=0.967;entryDx=0;entryDy=0;entryPerimeter=0;endArrow=none;endFill=0;" parent="1" source="NpZJ7TeURYDDHtTlFA_u-299" target="NpZJ7TeURYDDHtTlFA_u-280" edge="1">
          <mxGeometry relative="1" as="geometry" />
        </mxCell>
        <mxCell id="pRgywR5T7a0eV_t_xnRR-9" value="Subtotal" style="ellipse;whiteSpace=wrap;html=1;" parent="1" vertex="1">
          <mxGeometry x="-1065.5" y="536.5" width="63" height="44" as="geometry" />
        </mxCell>
        <mxCell id="pRgywR5T7a0eV_t_xnRR-18" style="rounded=0;orthogonalLoop=1;jettySize=auto;html=1;exitX=1;exitY=0.5;exitDx=0;exitDy=0;entryX=0;entryY=0.5;entryDx=0;entryDy=0;endArrow=none;endFill=0;" parent="1" source="pRgywR5T7a0eV_t_xnRR-10" target="NpZJ7TeURYDDHtTlFA_u-281" edge="1">
          <mxGeometry relative="1" as="geometry" />
        </mxCell>
        <mxCell id="pRgywR5T7a0eV_t_xnRR-10" value="Product_ID" style="ellipse;whiteSpace=wrap;html=1;" parent="1" vertex="1">
          <mxGeometry x="-1076" y="354.5" width="63" height="44" as="geometry" />
        </mxCell>
        <mxCell id="pRgywR5T7a0eV_t_xnRR-19" style="rounded=0;orthogonalLoop=1;jettySize=auto;html=1;exitX=1;exitY=0.5;exitDx=0;exitDy=0;entryX=0;entryY=0.75;entryDx=0;entryDy=0;endArrow=none;endFill=0;" parent="1" source="pRgywR5T7a0eV_t_xnRR-11" target="NpZJ7TeURYDDHtTlFA_u-281" edge="1">
          <mxGeometry relative="1" as="geometry" />
        </mxCell>
        <mxCell id="pRgywR5T7a0eV_t_xnRR-11" value="Quantity" style="ellipse;whiteSpace=wrap;html=1;" parent="1" vertex="1">
          <mxGeometry x="-1076" y="417.5" width="63" height="44" as="geometry" />
        </mxCell>
        <mxCell id="pRgywR5T7a0eV_t_xnRR-20" style="rounded=0;orthogonalLoop=1;jettySize=auto;html=1;exitX=1;exitY=0.5;exitDx=0;exitDy=0;entryX=0;entryY=1;entryDx=0;entryDy=0;endArrow=none;endFill=0;" parent="1" source="pRgywR5T7a0eV_t_xnRR-12" target="NpZJ7TeURYDDHtTlFA_u-281" edge="1">
          <mxGeometry relative="1" as="geometry" />
        </mxCell>
        <mxCell id="pRgywR5T7a0eV_t_xnRR-12" value="Unit_Price" style="ellipse;whiteSpace=wrap;html=1;" parent="1" vertex="1">
          <mxGeometry x="-1064" y="477.5" width="63" height="44" as="geometry" />
        </mxCell>
        <mxCell id="pRgywR5T7a0eV_t_xnRR-16" style="rounded=0;orthogonalLoop=1;jettySize=auto;html=1;exitX=1;exitY=1;exitDx=0;exitDy=0;entryX=0;entryY=0.25;entryDx=0;entryDy=0;endArrow=none;endFill=0;" parent="1" source="pRgywR5T7a0eV_t_xnRR-13" target="NpZJ7TeURYDDHtTlFA_u-281" edge="1">
          <mxGeometry relative="1" as="geometry" />
        </mxCell>
        <mxCell id="pRgywR5T7a0eV_t_xnRR-13" value="Order_ID" style="ellipse;whiteSpace=wrap;html=1;" parent="1" vertex="1">
          <mxGeometry x="-1070" y="291.5" width="63" height="44" as="geometry" />
        </mxCell>
        <mxCell id="pRgywR5T7a0eV_t_xnRR-15" style="rounded=0;orthogonalLoop=1;jettySize=auto;html=1;exitX=1;exitY=1;exitDx=0;exitDy=0;entryX=0;entryY=0;entryDx=0;entryDy=0;endArrow=none;endFill=0;" parent="1" source="pRgywR5T7a0eV_t_xnRR-14" target="NpZJ7TeURYDDHtTlFA_u-281" edge="1">
          <mxGeometry relative="1" as="geometry" />
        </mxCell>
        <mxCell id="pRgywR5T7a0eV_t_xnRR-14" value="ID" style="ellipse;whiteSpace=wrap;html=1;" parent="1" vertex="1">
          <mxGeometry x="-1052" y="242.5" width="63" height="44" as="geometry" />
        </mxCell>
        <mxCell id="pRgywR5T7a0eV_t_xnRR-21" style="rounded=0;orthogonalLoop=1;jettySize=auto;html=1;exitX=1;exitY=0.5;exitDx=0;exitDy=0;entryX=0.12;entryY=1.017;entryDx=0;entryDy=0;entryPerimeter=0;endArrow=none;endFill=0;" parent="1" source="pRgywR5T7a0eV_t_xnRR-9" target="NpZJ7TeURYDDHtTlFA_u-281" edge="1">
          <mxGeometry relative="1" as="geometry" />
        </mxCell>
        <mxCell id="pRgywR5T7a0eV_t_xnRR-22" value="Stock" style="ellipse;whiteSpace=wrap;html=1;" parent="1" vertex="1">
          <mxGeometry x="-1500" y="861.5" width="63" height="44" as="geometry" />
        </mxCell>
        <mxCell id="pRgywR5T7a0eV_t_xnRR-34" style="rounded=0;orthogonalLoop=1;jettySize=auto;html=1;exitX=1;exitY=0.5;exitDx=0;exitDy=0;entryX=0;entryY=0.5;entryDx=0;entryDy=0;endArrow=none;endFill=0;" parent="1" source="pRgywR5T7a0eV_t_xnRR-23" target="NpZJ7TeURYDDHtTlFA_u-284" edge="1">
          <mxGeometry relative="1" as="geometry" />
        </mxCell>
        <mxCell id="pRgywR5T7a0eV_t_xnRR-23" value="Name" style="ellipse;whiteSpace=wrap;html=1;" parent="1" vertex="1">
          <mxGeometry x="-1527" y="676.5" width="63" height="44" as="geometry" />
        </mxCell>
        <mxCell id="pRgywR5T7a0eV_t_xnRR-35" style="rounded=0;orthogonalLoop=1;jettySize=auto;html=1;exitX=1;exitY=0.5;exitDx=0;exitDy=0;entryX=0;entryY=0.75;entryDx=0;entryDy=0;endArrow=none;endFill=0;" parent="1" source="pRgywR5T7a0eV_t_xnRR-24" target="NpZJ7TeURYDDHtTlFA_u-284" edge="1">
          <mxGeometry relative="1" as="geometry" />
        </mxCell>
        <mxCell id="pRgywR5T7a0eV_t_xnRR-24" value="Description" style="ellipse;whiteSpace=wrap;html=1;" parent="1" vertex="1">
          <mxGeometry x="-1545" y="736.5" width="63" height="44" as="geometry" />
        </mxCell>
        <mxCell id="pRgywR5T7a0eV_t_xnRR-36" style="rounded=0;orthogonalLoop=1;jettySize=auto;html=1;exitX=1;exitY=0.5;exitDx=0;exitDy=0;entryX=-0.016;entryY=0.828;entryDx=0;entryDy=0;endArrow=none;endFill=0;entryPerimeter=0;" parent="1" source="pRgywR5T7a0eV_t_xnRR-25" target="NpZJ7TeURYDDHtTlFA_u-284" edge="1">
          <mxGeometry relative="1" as="geometry" />
        </mxCell>
        <mxCell id="pRgywR5T7a0eV_t_xnRR-25" value="Price" style="ellipse;whiteSpace=wrap;html=1;" parent="1" vertex="1">
          <mxGeometry x="-1527" y="793.5" width="63" height="44" as="geometry" />
        </mxCell>
        <mxCell id="pRgywR5T7a0eV_t_xnRR-33" style="rounded=0;orthogonalLoop=1;jettySize=auto;html=1;exitX=1;exitY=0.5;exitDx=0;exitDy=0;entryX=0;entryY=0.25;entryDx=0;entryDy=0;endArrow=none;endFill=0;" parent="1" source="pRgywR5T7a0eV_t_xnRR-26" target="NpZJ7TeURYDDHtTlFA_u-284" edge="1">
          <mxGeometry relative="1" as="geometry" />
        </mxCell>
        <mxCell id="pRgywR5T7a0eV_t_xnRR-26" value="SKU" style="ellipse;whiteSpace=wrap;html=1;" parent="1" vertex="1">
          <mxGeometry x="-1509" y="622.5" width="63" height="44" as="geometry" />
        </mxCell>
        <mxCell id="pRgywR5T7a0eV_t_xnRR-30" style="rounded=0;orthogonalLoop=1;jettySize=auto;html=1;exitX=1;exitY=0.5;exitDx=0;exitDy=0;entryX=0;entryY=0;entryDx=0;entryDy=0;endArrow=none;endFill=0;" parent="1" source="pRgywR5T7a0eV_t_xnRR-27" target="NpZJ7TeURYDDHtTlFA_u-284" edge="1">
          <mxGeometry relative="1" as="geometry" />
        </mxCell>
        <mxCell id="pRgywR5T7a0eV_t_xnRR-27" value="ID" style="ellipse;whiteSpace=wrap;html=1;" parent="1" vertex="1">
          <mxGeometry x="-1464" y="568.5" width="63" height="44" as="geometry" />
        </mxCell>
        <mxCell id="pRgywR5T7a0eV_t_xnRR-38" style="rounded=0;orthogonalLoop=1;jettySize=auto;html=1;exitX=1;exitY=0.5;exitDx=0;exitDy=0;entryX=0.042;entryY=0.994;entryDx=0;entryDy=0;endArrow=none;endFill=0;entryPerimeter=0;" parent="1" source="pRgywR5T7a0eV_t_xnRR-28" target="NpZJ7TeURYDDHtTlFA_u-284" edge="1">
          <mxGeometry relative="1" as="geometry" />
        </mxCell>
        <mxCell id="pRgywR5T7a0eV_t_xnRR-28" value="Created_at" style="ellipse;whiteSpace=wrap;html=1;" parent="1" vertex="1">
          <mxGeometry x="-1446" y="905.5" width="63" height="44" as="geometry" />
        </mxCell>
        <mxCell id="pRgywR5T7a0eV_t_xnRR-29" value="Updated_at" style="ellipse;whiteSpace=wrap;html=1;" parent="1" vertex="1">
          <mxGeometry x="-1383" y="937.5" width="63" height="44" as="geometry" />
        </mxCell>
        <mxCell id="pRgywR5T7a0eV_t_xnRR-37" style="rounded=0;orthogonalLoop=1;jettySize=auto;html=1;exitX=1;exitY=0.5;exitDx=0;exitDy=0;entryX=-0.001;entryY=0.89;entryDx=0;entryDy=0;entryPerimeter=0;endArrow=none;endFill=0;" parent="1" source="pRgywR5T7a0eV_t_xnRR-22" target="NpZJ7TeURYDDHtTlFA_u-284" edge="1">
          <mxGeometry relative="1" as="geometry" />
        </mxCell>
        <mxCell id="pRgywR5T7a0eV_t_xnRR-39" style="rounded=0;orthogonalLoop=1;jettySize=auto;html=1;exitX=1;exitY=0.5;exitDx=0;exitDy=0;entryX=0.096;entryY=1.029;entryDx=0;entryDy=0;entryPerimeter=0;endArrow=none;endFill=0;" parent="1" source="pRgywR5T7a0eV_t_xnRR-29" target="NpZJ7TeURYDDHtTlFA_u-284" edge="1">
          <mxGeometry relative="1" as="geometry" />
        </mxCell>
        <mxCell id="pRgywR5T7a0eV_t_xnRR-40" value="Address_ID" style="ellipse;whiteSpace=wrap;html=1;" parent="1" vertex="1">
          <mxGeometry x="-126" y="126" width="63" height="44" as="geometry" />
        </mxCell>
        <mxCell id="pRgywR5T7a0eV_t_xnRR-41" value="ID" style="ellipse;whiteSpace=wrap;html=1;" parent="1" vertex="1">
          <mxGeometry x="-99" y="57.5" width="63" height="44" as="geometry" />
        </mxCell>
        <mxCell id="pRgywR5T7a0eV_t_xnRR-42" value="User_ID" style="ellipse;whiteSpace=wrap;html=1;" parent="1" vertex="1">
          <mxGeometry x="-27" y="25" width="63" height="44" as="geometry" />
        </mxCell>
        <mxCell id="pRgywR5T7a0eV_t_xnRR-53" style="rounded=0;orthogonalLoop=1;jettySize=auto;html=1;exitX=0;exitY=0.5;exitDx=0;exitDy=0;entryX=1;entryY=0;entryDx=0;entryDy=0;endArrow=none;endFill=0;" parent="1" source="pRgywR5T7a0eV_t_xnRR-43" target="NpZJ7TeURYDDHtTlFA_u-282" edge="1">
          <mxGeometry relative="1" as="geometry" />
        </mxCell>
        <mxCell id="pRgywR5T7a0eV_t_xnRR-43" value="Created_at" style="ellipse;whiteSpace=wrap;html=1;" parent="1" vertex="1">
          <mxGeometry x="198" y="47" width="63" height="44" as="geometry" />
        </mxCell>
        <mxCell id="pRgywR5T7a0eV_t_xnRR-44" value="&lt;font style=&quot;font-size: 9px;&quot;&gt;Total_amount&lt;/font&gt;" style="ellipse;whiteSpace=wrap;html=1;" parent="1" vertex="1">
          <mxGeometry x="126" y="16" width="63" height="44" as="geometry" />
        </mxCell>
        <mxCell id="pRgywR5T7a0eV_t_xnRR-50" style="rounded=0;orthogonalLoop=1;jettySize=auto;html=1;exitX=0.5;exitY=1;exitDx=0;exitDy=0;entryX=0.75;entryY=0;entryDx=0;entryDy=0;endArrow=none;endFill=0;" parent="1" source="pRgywR5T7a0eV_t_xnRR-45" target="NpZJ7TeURYDDHtTlFA_u-282" edge="1">
          <mxGeometry relative="1" as="geometry" />
        </mxCell>
        <mxCell id="pRgywR5T7a0eV_t_xnRR-45" value="&lt;font style=&quot;font-size: 9px;&quot;&gt;Order_&lt;/font&gt;&lt;div&gt;&lt;font style=&quot;font-size: 9px;&quot;&gt;Status_ID&lt;/font&gt;&lt;/div&gt;" style="ellipse;whiteSpace=wrap;html=1;" parent="1" vertex="1">
          <mxGeometry x="49.5" y="13.5" width="63" height="44" as="geometry" />
        </mxCell>
        <mxCell id="pRgywR5T7a0eV_t_xnRR-46" value="Updated_at" style="ellipse;whiteSpace=wrap;html=1;" parent="1" vertex="1">
          <mxGeometry x="216" y="109" width="63" height="44" as="geometry" />
        </mxCell>
        <mxCell id="pRgywR5T7a0eV_t_xnRR-47" style="rounded=0;orthogonalLoop=1;jettySize=auto;html=1;exitX=0.5;exitY=1;exitDx=0;exitDy=0;entryX=0.142;entryY=0.041;entryDx=0;entryDy=0;entryPerimeter=0;endArrow=none;endFill=0;" parent="1" source="pRgywR5T7a0eV_t_xnRR-40" target="NpZJ7TeURYDDHtTlFA_u-282" edge="1">
          <mxGeometry relative="1" as="geometry" />
        </mxCell>
        <mxCell id="pRgywR5T7a0eV_t_xnRR-48" style="rounded=0;orthogonalLoop=1;jettySize=auto;html=1;exitX=0.5;exitY=1;exitDx=0;exitDy=0;entryX=0.372;entryY=0.007;entryDx=0;entryDy=0;entryPerimeter=0;endArrow=none;endFill=0;" parent="1" source="pRgywR5T7a0eV_t_xnRR-41" target="NpZJ7TeURYDDHtTlFA_u-282" edge="1">
          <mxGeometry relative="1" as="geometry" />
        </mxCell>
        <mxCell id="pRgywR5T7a0eV_t_xnRR-49" style="rounded=0;orthogonalLoop=1;jettySize=auto;html=1;exitX=0.5;exitY=1;exitDx=0;exitDy=0;entryX=0.55;entryY=-0.051;entryDx=0;entryDy=0;entryPerimeter=0;endArrow=none;endFill=0;" parent="1" source="pRgywR5T7a0eV_t_xnRR-42" target="NpZJ7TeURYDDHtTlFA_u-282" edge="1">
          <mxGeometry relative="1" as="geometry" />
        </mxCell>
        <mxCell id="pRgywR5T7a0eV_t_xnRR-51" style="rounded=0;orthogonalLoop=1;jettySize=auto;html=1;exitX=0.5;exitY=1;exitDx=0;exitDy=0;entryX=0.833;entryY=0;entryDx=0;entryDy=0;entryPerimeter=0;endArrow=none;endFill=0;" parent="1" source="pRgywR5T7a0eV_t_xnRR-44" target="NpZJ7TeURYDDHtTlFA_u-282" edge="1">
          <mxGeometry relative="1" as="geometry" />
        </mxCell>
        <mxCell id="pRgywR5T7a0eV_t_xnRR-54" style="rounded=0;orthogonalLoop=1;jettySize=auto;html=1;exitX=0;exitY=0.5;exitDx=0;exitDy=0;entryX=1.01;entryY=0.122;entryDx=0;entryDy=0;entryPerimeter=0;endArrow=none;endFill=0;" parent="1" source="pRgywR5T7a0eV_t_xnRR-46" target="NpZJ7TeURYDDHtTlFA_u-282" edge="1">
          <mxGeometry relative="1" as="geometry" />
        </mxCell>
        <mxCell id="pRgywR5T7a0eV_t_xnRR-55" value="Order_statuses" style="rounded=0;whiteSpace=wrap;html=1;" parent="1" vertex="1">
          <mxGeometry x="-18" y="513" width="108" height="60" as="geometry" />
        </mxCell>
        <mxCell id="pRgywR5T7a0eV_t_xnRR-123" style="edgeStyle=orthogonalEdgeStyle;rounded=0;orthogonalLoop=1;jettySize=auto;html=1;exitX=0;exitY=0.5;exitDx=0;exitDy=0;endArrow=none;endFill=0;" parent="1" source="pRgywR5T7a0eV_t_xnRR-56" edge="1">
          <mxGeometry relative="1" as="geometry">
            <mxPoint x="135" y="288" as="targetPoint" />
            <Array as="points">
              <mxPoint x="36" y="756" />
              <mxPoint x="189" y="756" />
              <mxPoint x="189" y="288" />
            </Array>
          </mxGeometry>
        </mxCell>
        <mxCell id="pRgywR5T7a0eV_t_xnRR-56" value="Users" style="rounded=0;whiteSpace=wrap;html=1;" parent="1" vertex="1">
          <mxGeometry x="36" y="745" width="108" height="60" as="geometry" />
        </mxCell>
        <mxCell id="pRgywR5T7a0eV_t_xnRR-95" style="edgeStyle=orthogonalEdgeStyle;rounded=0;orthogonalLoop=1;jettySize=auto;html=1;exitX=0.5;exitY=1;exitDx=0;exitDy=0;entryX=1;entryY=0.5;entryDx=0;entryDy=0;endArrow=none;endFill=0;" parent="1" source="pRgywR5T7a0eV_t_xnRR-58" target="pRgywR5T7a0eV_t_xnRR-94" edge="1">
          <mxGeometry relative="1" as="geometry" />
        </mxCell>
        <mxCell id="pRgywR5T7a0eV_t_xnRR-58" value="Addresses" style="rounded=0;whiteSpace=wrap;html=1;" parent="1" vertex="1">
          <mxGeometry x="432" y="387" width="108" height="60" as="geometry" />
        </mxCell>
        <mxCell id="pRgywR5T7a0eV_t_xnRR-83" style="rounded=0;orthogonalLoop=1;jettySize=auto;html=1;exitX=0;exitY=0.5;exitDx=0;exitDy=0;entryX=1;entryY=0.25;entryDx=0;entryDy=0;endArrow=none;endFill=0;" parent="1" source="pRgywR5T7a0eV_t_xnRR-61" target="pRgywR5T7a0eV_t_xnRR-58" edge="1">
          <mxGeometry relative="1" as="geometry" />
        </mxCell>
        <mxCell id="pRgywR5T7a0eV_t_xnRR-61" value="Line1" style="ellipse;whiteSpace=wrap;html=1;" parent="1" vertex="1">
          <mxGeometry x="720" y="344" width="63" height="44" as="geometry" />
        </mxCell>
        <mxCell id="pRgywR5T7a0eV_t_xnRR-79" style="rounded=0;orthogonalLoop=1;jettySize=auto;html=1;exitX=0;exitY=1;exitDx=0;exitDy=0;endArrow=none;endFill=0;" parent="1" source="pRgywR5T7a0eV_t_xnRR-62" target="pRgywR5T7a0eV_t_xnRR-58" edge="1">
          <mxGeometry relative="1" as="geometry" />
        </mxCell>
        <mxCell id="pRgywR5T7a0eV_t_xnRR-62" value="ID" style="ellipse;whiteSpace=wrap;html=1;" parent="1" vertex="1">
          <mxGeometry x="576" y="212.5" width="63" height="44" as="geometry" />
        </mxCell>
        <mxCell id="pRgywR5T7a0eV_t_xnRR-80" style="rounded=0;orthogonalLoop=1;jettySize=auto;html=1;exitX=0;exitY=1;exitDx=0;exitDy=0;entryX=0.75;entryY=0;entryDx=0;entryDy=0;endArrow=none;endFill=0;" parent="1" source="pRgywR5T7a0eV_t_xnRR-63" target="pRgywR5T7a0eV_t_xnRR-58" edge="1">
          <mxGeometry relative="1" as="geometry" />
        </mxCell>
        <mxCell id="pRgywR5T7a0eV_t_xnRR-63" value="User_ID" style="ellipse;whiteSpace=wrap;html=1;" parent="1" vertex="1">
          <mxGeometry x="630" y="251" width="63" height="44" as="geometry" />
        </mxCell>
        <mxCell id="pRgywR5T7a0eV_t_xnRR-85" style="rounded=0;orthogonalLoop=1;jettySize=auto;html=1;exitX=0;exitY=0.5;exitDx=0;exitDy=0;entryX=1;entryY=0.75;entryDx=0;entryDy=0;endArrow=none;endFill=0;" parent="1" source="pRgywR5T7a0eV_t_xnRR-64" target="pRgywR5T7a0eV_t_xnRR-58" edge="1">
          <mxGeometry relative="1" as="geometry" />
        </mxCell>
        <mxCell id="pRgywR5T7a0eV_t_xnRR-64" value="City" style="ellipse;whiteSpace=wrap;html=1;" parent="1" vertex="1">
          <mxGeometry x="729" y="486" width="63" height="44" as="geometry" />
        </mxCell>
        <mxCell id="pRgywR5T7a0eV_t_xnRR-84" style="rounded=0;orthogonalLoop=1;jettySize=auto;html=1;exitX=0;exitY=0.5;exitDx=0;exitDy=0;entryX=1;entryY=0.5;entryDx=0;entryDy=0;endArrow=none;endFill=0;" parent="1" source="pRgywR5T7a0eV_t_xnRR-65" target="pRgywR5T7a0eV_t_xnRR-58" edge="1">
          <mxGeometry relative="1" as="geometry" />
        </mxCell>
        <mxCell id="pRgywR5T7a0eV_t_xnRR-65" value="&lt;font&gt;Line2&lt;/font&gt;" style="ellipse;whiteSpace=wrap;html=1;" parent="1" vertex="1">
          <mxGeometry x="738" y="415" width="63" height="44" as="geometry" />
        </mxCell>
        <mxCell id="pRgywR5T7a0eV_t_xnRR-66" value="&lt;font size=&quot;1&quot;&gt;Label&lt;/font&gt;" style="ellipse;whiteSpace=wrap;html=1;" parent="1" vertex="1">
          <mxGeometry x="675" y="295" width="63" height="44" as="geometry" />
        </mxCell>
        <mxCell id="pRgywR5T7a0eV_t_xnRR-86" style="rounded=0;orthogonalLoop=1;jettySize=auto;html=1;exitX=0;exitY=0.5;exitDx=0;exitDy=0;entryX=1;entryY=1;entryDx=0;entryDy=0;endArrow=none;endFill=0;" parent="1" source="pRgywR5T7a0eV_t_xnRR-67" target="pRgywR5T7a0eV_t_xnRR-58" edge="1">
          <mxGeometry relative="1" as="geometry" />
        </mxCell>
        <mxCell id="pRgywR5T7a0eV_t_xnRR-67" value="&lt;font style=&quot;font-size: 9px;&quot;&gt;Province_State&lt;/font&gt;" style="ellipse;whiteSpace=wrap;html=1;" parent="1" vertex="1">
          <mxGeometry x="711" y="541" width="63" height="44" as="geometry" />
        </mxCell>
        <mxCell id="pRgywR5T7a0eV_t_xnRR-76" value="country" style="ellipse;whiteSpace=wrap;html=1;" parent="1" vertex="1">
          <mxGeometry x="639" y="657" width="63" height="44" as="geometry" />
        </mxCell>
        <mxCell id="pRgywR5T7a0eV_t_xnRR-77" value="&lt;font size=&quot;1&quot;&gt;Postal_code&lt;/font&gt;" style="ellipse;whiteSpace=wrap;html=1;" parent="1" vertex="1">
          <mxGeometry x="684" y="603" width="63" height="44" as="geometry" />
        </mxCell>
        <mxCell id="pRgywR5T7a0eV_t_xnRR-78" value="Created_at" style="ellipse;whiteSpace=wrap;html=1;" parent="1" vertex="1">
          <mxGeometry x="603" y="709" width="63" height="44" as="geometry" />
        </mxCell>
        <mxCell id="pRgywR5T7a0eV_t_xnRR-82" style="rounded=0;orthogonalLoop=1;jettySize=auto;html=1;exitX=0;exitY=0.5;exitDx=0;exitDy=0;entryX=0.934;entryY=0.053;entryDx=0;entryDy=0;entryPerimeter=0;endArrow=none;endFill=0;" parent="1" source="pRgywR5T7a0eV_t_xnRR-66" target="pRgywR5T7a0eV_t_xnRR-58" edge="1">
          <mxGeometry relative="1" as="geometry" />
        </mxCell>
        <mxCell id="pRgywR5T7a0eV_t_xnRR-87" style="rounded=0;orthogonalLoop=1;jettySize=auto;html=1;exitX=0;exitY=0.5;exitDx=0;exitDy=0;entryX=0.863;entryY=0.976;entryDx=0;entryDy=0;entryPerimeter=0;endArrow=none;endFill=0;" parent="1" source="pRgywR5T7a0eV_t_xnRR-77" target="pRgywR5T7a0eV_t_xnRR-58" edge="1">
          <mxGeometry relative="1" as="geometry" />
        </mxCell>
        <mxCell id="pRgywR5T7a0eV_t_xnRR-88" style="rounded=0;orthogonalLoop=1;jettySize=auto;html=1;exitX=0;exitY=0.5;exitDx=0;exitDy=0;entryX=0.834;entryY=0.976;entryDx=0;entryDy=0;entryPerimeter=0;endArrow=none;endFill=0;" parent="1" source="pRgywR5T7a0eV_t_xnRR-76" target="pRgywR5T7a0eV_t_xnRR-58" edge="1">
          <mxGeometry relative="1" as="geometry" />
        </mxCell>
        <mxCell id="pRgywR5T7a0eV_t_xnRR-89" style="rounded=0;orthogonalLoop=1;jettySize=auto;html=1;exitX=0;exitY=0.5;exitDx=0;exitDy=0;entryX=0.592;entryY=0.963;entryDx=0;entryDy=0;entryPerimeter=0;endArrow=none;endFill=0;" parent="1" source="pRgywR5T7a0eV_t_xnRR-78" target="pRgywR5T7a0eV_t_xnRR-58" edge="1">
          <mxGeometry relative="1" as="geometry" />
        </mxCell>
        <mxCell id="pRgywR5T7a0eV_t_xnRR-91" value="Ships to" style="rhombus;whiteSpace=wrap;html=1;" parent="1" vertex="1">
          <mxGeometry x="315" y="243" width="71" height="62" as="geometry" />
        </mxCell>
        <mxCell id="pRgywR5T7a0eV_t_xnRR-93" style="edgeStyle=orthogonalEdgeStyle;rounded=0;orthogonalLoop=1;jettySize=auto;html=1;exitX=1;exitY=0.5;exitDx=0;exitDy=0;entryX=0.407;entryY=0.066;entryDx=0;entryDy=0;entryPerimeter=0;endArrow=none;endFill=0;" parent="1" source="pRgywR5T7a0eV_t_xnRR-91" target="pRgywR5T7a0eV_t_xnRR-58" edge="1">
          <mxGeometry relative="1" as="geometry" />
        </mxCell>
        <mxCell id="pRgywR5T7a0eV_t_xnRR-96" style="edgeStyle=orthogonalEdgeStyle;rounded=0;orthogonalLoop=1;jettySize=auto;html=1;exitX=0;exitY=0.5;exitDx=0;exitDy=0;endArrow=none;endFill=0;" parent="1" source="pRgywR5T7a0eV_t_xnRR-94" target="pRgywR5T7a0eV_t_xnRR-56" edge="1">
          <mxGeometry relative="1" as="geometry" />
        </mxCell>
        <mxCell id="pRgywR5T7a0eV_t_xnRR-94" value="Belongs to" style="rhombus;whiteSpace=wrap;html=1;" parent="1" vertex="1">
          <mxGeometry x="315" y="745" width="71" height="62" as="geometry" />
        </mxCell>
        <mxCell id="pRgywR5T7a0eV_t_xnRR-107" style="rounded=0;orthogonalLoop=1;jettySize=auto;html=1;exitX=1;exitY=0.5;exitDx=0;exitDy=0;entryX=0;entryY=0.5;entryDx=0;entryDy=0;endArrow=none;endFill=0;" parent="1" source="pRgywR5T7a0eV_t_xnRR-97" edge="1">
          <mxGeometry relative="1" as="geometry">
            <mxPoint x="-18.5" y="543" as="targetPoint" />
          </mxGeometry>
        </mxCell>
        <mxCell id="pRgywR5T7a0eV_t_xnRR-97" value="Code" style="ellipse;whiteSpace=wrap;html=1;" parent="1" vertex="1">
          <mxGeometry x="-126.5" y="521" width="63" height="44" as="geometry" />
        </mxCell>
        <mxCell id="pRgywR5T7a0eV_t_xnRR-98" value="&lt;font size=&quot;1&quot;&gt;ID&lt;/font&gt;" style="ellipse;whiteSpace=wrap;html=1;" parent="1" vertex="1">
          <mxGeometry x="-117.5" y="450" width="63" height="44" as="geometry" />
        </mxCell>
        <mxCell id="pRgywR5T7a0eV_t_xnRR-99" value="Name" style="ellipse;whiteSpace=wrap;html=1;" parent="1" vertex="1">
          <mxGeometry x="-117.5" y="586" width="63" height="44" as="geometry" />
        </mxCell>
        <mxCell id="pRgywR5T7a0eV_t_xnRR-105" value="" style="edgeStyle=orthogonalEdgeStyle;rounded=0;orthogonalLoop=1;jettySize=auto;html=1;endArrow=none;endFill=0;" parent="1" source="pRgywR5T7a0eV_t_xnRR-103" target="pRgywR5T7a0eV_t_xnRR-55" edge="1">
          <mxGeometry relative="1" as="geometry" />
        </mxCell>
        <mxCell id="pRgywR5T7a0eV_t_xnRR-103" value="Tracks" style="rhombus;whiteSpace=wrap;html=1;" parent="1" vertex="1">
          <mxGeometry x="45.5" y="391.5" width="71" height="62" as="geometry" />
        </mxCell>
        <mxCell id="pRgywR5T7a0eV_t_xnRR-106" style="rounded=0;orthogonalLoop=1;jettySize=auto;html=1;exitX=1;exitY=0.5;exitDx=0;exitDy=0;entryX=0.074;entryY=0.058;entryDx=0;entryDy=0;entryPerimeter=0;endArrow=none;endFill=0;" parent="1" source="pRgywR5T7a0eV_t_xnRR-98" edge="1">
          <mxGeometry relative="1" as="geometry">
            <mxPoint x="-10.50799999999981" y="516.48" as="targetPoint" />
          </mxGeometry>
        </mxCell>
        <mxCell id="pRgywR5T7a0eV_t_xnRR-108" style="rounded=0;orthogonalLoop=1;jettySize=auto;html=1;exitX=1;exitY=0.5;exitDx=0;exitDy=0;entryX=0.088;entryY=0.967;entryDx=0;entryDy=0;entryPerimeter=0;endArrow=none;endFill=0;" parent="1" source="pRgywR5T7a0eV_t_xnRR-99" edge="1">
          <mxGeometry relative="1" as="geometry">
            <mxPoint x="-8.99599999999964" y="571.0199999999995" as="targetPoint" />
          </mxGeometry>
        </mxCell>
        <mxCell id="pRgywR5T7a0eV_t_xnRR-117" style="rounded=0;orthogonalLoop=1;jettySize=auto;html=1;exitX=1;exitY=0.5;exitDx=0;exitDy=0;endArrow=none;endFill=0;entryX=0.199;entryY=0.988;entryDx=0;entryDy=0;entryPerimeter=0;" parent="1" source="pRgywR5T7a0eV_t_xnRR-109" target="pRgywR5T7a0eV_t_xnRR-56" edge="1">
          <mxGeometry relative="1" as="geometry">
            <mxPoint x="72" y="839.7" as="targetPoint" />
          </mxGeometry>
        </mxCell>
        <mxCell id="pRgywR5T7a0eV_t_xnRR-109" value="&lt;font size=&quot;1&quot;&gt;email&lt;/font&gt;" style="ellipse;whiteSpace=wrap;html=1;" parent="1" vertex="1">
          <mxGeometry x="-27" y="924.7" width="63" height="44" as="geometry" />
        </mxCell>
        <mxCell id="pRgywR5T7a0eV_t_xnRR-110" value="&lt;font size=&quot;1&quot;&gt;Phone&lt;/font&gt;" style="ellipse;whiteSpace=wrap;html=1;" parent="1" vertex="1">
          <mxGeometry x="162" y="968.7" width="63" height="44" as="geometry" />
        </mxCell>
        <mxCell id="pRgywR5T7a0eV_t_xnRR-119" style="rounded=0;orthogonalLoop=1;jettySize=auto;html=1;exitX=0.5;exitY=0;exitDx=0;exitDy=0;endArrow=none;endFill=0;entryX=0.5;entryY=1;entryDx=0;entryDy=0;" parent="1" source="pRgywR5T7a0eV_t_xnRR-111" target="pRgywR5T7a0eV_t_xnRR-56" edge="1">
          <mxGeometry relative="1" as="geometry">
            <mxPoint x="126" y="839.7" as="targetPoint" />
          </mxGeometry>
        </mxCell>
        <mxCell id="pRgywR5T7a0eV_t_xnRR-111" value="&lt;font size=&quot;1&quot;&gt;Full_name&lt;/font&gt;" style="ellipse;whiteSpace=wrap;html=1;" parent="1" vertex="1">
          <mxGeometry x="94.5" y="989.7" width="63" height="44" as="geometry" />
        </mxCell>
        <mxCell id="pRgywR5T7a0eV_t_xnRR-118" style="rounded=0;orthogonalLoop=1;jettySize=auto;html=1;exitX=0.5;exitY=0;exitDx=0;exitDy=0;entryX=0.34;entryY=0.956;entryDx=0;entryDy=0;endArrow=none;endFill=0;entryPerimeter=0;" parent="1" source="pRgywR5T7a0eV_t_xnRR-112" target="pRgywR5T7a0eV_t_xnRR-56" edge="1">
          <mxGeometry relative="1" as="geometry">
            <mxPoint x="81.51" y="967.2" as="sourcePoint" />
            <mxPoint x="99" y="839.7" as="targetPoint" />
          </mxGeometry>
        </mxCell>
        <mxCell id="pRgywR5T7a0eV_t_xnRR-112" value="&lt;font size=&quot;1&quot;&gt;Password&lt;/font&gt;&lt;div&gt;&lt;font size=&quot;1&quot;&gt;_hash&lt;/font&gt;&lt;/div&gt;" style="ellipse;whiteSpace=wrap;html=1;" parent="1" vertex="1">
          <mxGeometry x="27" y="968.7" width="63" height="44" as="geometry" />
        </mxCell>
        <mxCell id="pRgywR5T7a0eV_t_xnRR-113" value="&lt;font size=&quot;1&quot;&gt;Created_at&lt;/font&gt;" style="ellipse;whiteSpace=wrap;html=1;" parent="1" vertex="1">
          <mxGeometry x="216" y="932.7" width="63" height="44" as="geometry" />
        </mxCell>
        <mxCell id="pRgywR5T7a0eV_t_xnRR-114" value="&lt;font size=&quot;1&quot;&gt;Updated_at&lt;/font&gt;" style="ellipse;whiteSpace=wrap;html=1;" parent="1" vertex="1">
          <mxGeometry x="252" y="880.7" width="63" height="44" as="geometry" />
        </mxCell>
        <mxCell id="pRgywR5T7a0eV_t_xnRR-115" value="&lt;font size=&quot;1&quot;&gt;ID&lt;/font&gt;" style="ellipse;whiteSpace=wrap;html=1;" parent="1" vertex="1">
          <mxGeometry x="-54" y="872.7" width="63" height="44" as="geometry" />
        </mxCell>
        <mxCell id="pRgywR5T7a0eV_t_xnRR-116" style="rounded=0;orthogonalLoop=1;jettySize=auto;html=1;exitX=1;exitY=0.5;exitDx=0;exitDy=0;entryX=0.102;entryY=0.956;entryDx=0;entryDy=0;entryPerimeter=0;endArrow=none;endFill=0;" parent="1" source="pRgywR5T7a0eV_t_xnRR-115" target="pRgywR5T7a0eV_t_xnRR-56" edge="1">
          <mxGeometry relative="1" as="geometry">
            <mxPoint x="72.10800000000017" y="818.9999999999998" as="targetPoint" />
          </mxGeometry>
        </mxCell>
        <mxCell id="pRgywR5T7a0eV_t_xnRR-120" style="rounded=0;orthogonalLoop=1;jettySize=auto;html=1;exitX=0.5;exitY=0;exitDx=0;exitDy=0;entryX=0.631;entryY=0.988;entryDx=0;entryDy=0;entryPerimeter=0;endArrow=none;endFill=0;" parent="1" source="pRgywR5T7a0eV_t_xnRR-110" target="pRgywR5T7a0eV_t_xnRR-56" edge="1">
          <mxGeometry relative="1" as="geometry">
            <mxPoint x="140.14800000000014" y="836.7" as="targetPoint" />
          </mxGeometry>
        </mxCell>
        <mxCell id="pRgywR5T7a0eV_t_xnRR-121" style="rounded=0;orthogonalLoop=1;jettySize=auto;html=1;exitX=0;exitY=0;exitDx=0;exitDy=0;entryX=0.75;entryY=1;entryDx=0;entryDy=0;endArrow=none;endFill=0;" parent="1" source="pRgywR5T7a0eV_t_xnRR-113" target="pRgywR5T7a0eV_t_xnRR-56" edge="1">
          <mxGeometry relative="1" as="geometry">
            <mxPoint x="165.85200000000032" y="837.8399999999999" as="targetPoint" />
          </mxGeometry>
        </mxCell>
        <mxCell id="pRgywR5T7a0eV_t_xnRR-122" style="rounded=0;orthogonalLoop=1;jettySize=auto;html=1;exitX=0;exitY=0.5;exitDx=0;exitDy=0;entryX=0.861;entryY=1.004;entryDx=0;entryDy=0;entryPerimeter=0;endArrow=none;endFill=0;" parent="1" source="pRgywR5T7a0eV_t_xnRR-114" target="pRgywR5T7a0eV_t_xnRR-56" edge="1">
          <mxGeometry relative="1" as="geometry">
            <mxPoint x="179.56799999999976" y="834.9600000000003" as="targetPoint" />
          </mxGeometry>
        </mxCell>
        <mxCell id="pRgywR5T7a0eV_t_xnRR-124" value="Placed by" style="rhombus;whiteSpace=wrap;html=1;" parent="1" vertex="1">
          <mxGeometry x="153" y="508" width="71" height="62" as="geometry" />
        </mxCell>
        <mxCell id="pRgywR5T7a0eV_t_xnRR-127" style="edgeStyle=orthogonalEdgeStyle;rounded=0;orthogonalLoop=1;jettySize=auto;html=1;exitX=0.5;exitY=0;exitDx=0;exitDy=0;endArrow=none;endFill=0;entryX=0.505;entryY=0.983;entryDx=0;entryDy=0;entryPerimeter=0;" parent="1" source="pRgywR5T7a0eV_t_xnRR-125" target="NpZJ7TeURYDDHtTlFA_u-281" edge="1">
          <mxGeometry relative="1" as="geometry">
            <mxPoint x="-881" y="423" as="targetPoint" />
          </mxGeometry>
        </mxCell>
        <mxCell id="pRgywR5T7a0eV_t_xnRR-125" value="&lt;font style=&quot;font-size: 10px;&quot;&gt;Contains&amp;nbsp;&lt;/font&gt;&lt;div&gt;&lt;font style=&quot;font-size: 10px;&quot;&gt;in&lt;/font&gt;&lt;/div&gt;" style="rhombus;whiteSpace=wrap;html=1;" parent="1" vertex="1">
          <mxGeometry x="-916.5" y="486" width="71" height="62" as="geometry" />
        </mxCell>
        <mxCell id="pRgywR5T7a0eV_t_xnRR-147" style="edgeStyle=orthogonalEdgeStyle;rounded=0;orthogonalLoop=1;jettySize=auto;html=1;exitX=0.5;exitY=0;exitDx=0;exitDy=0;endArrow=none;endFill=0;" parent="1" source="pRgywR5T7a0eV_t_xnRR-128" edge="1">
          <mxGeometry relative="1" as="geometry">
            <mxPoint x="-225" y="304" as="targetPoint" />
            <Array as="points">
              <mxPoint x="-447" y="576" />
              <mxPoint x="-225" y="576" />
            </Array>
          </mxGeometry>
        </mxCell>
        <mxCell id="pRgywR5T7a0eV_t_xnRR-128" value="Order_Changes" style="rounded=0;whiteSpace=wrap;html=1;" parent="1" vertex="1">
          <mxGeometry x="-501" y="630" width="108" height="60" as="geometry" />
        </mxCell>
        <mxCell id="pRgywR5T7a0eV_t_xnRR-140" style="rounded=0;orthogonalLoop=1;jettySize=auto;html=1;exitX=0.5;exitY=0;exitDx=0;exitDy=0;endArrow=none;endFill=0;" parent="1" source="pRgywR5T7a0eV_t_xnRR-129" target="pRgywR5T7a0eV_t_xnRR-128" edge="1">
          <mxGeometry relative="1" as="geometry" />
        </mxCell>
        <mxCell id="pRgywR5T7a0eV_t_xnRR-129" value="Change_&lt;div&gt;type&lt;/div&gt;" style="ellipse;whiteSpace=wrap;html=1;" parent="1" vertex="1">
          <mxGeometry x="-522" y="818.25" width="63" height="44" as="geometry" />
        </mxCell>
        <mxCell id="pRgywR5T7a0eV_t_xnRR-130" value="ID" style="ellipse;whiteSpace=wrap;html=1;" parent="1" vertex="1">
          <mxGeometry x="-699" y="721.25" width="63" height="44" as="geometry" />
        </mxCell>
        <mxCell id="pRgywR5T7a0eV_t_xnRR-138" style="rounded=0;orthogonalLoop=1;jettySize=auto;html=1;exitX=1;exitY=0.5;exitDx=0;exitDy=0;entryX=0.25;entryY=1;entryDx=0;entryDy=0;endArrow=none;endFill=0;" parent="1" source="pRgywR5T7a0eV_t_xnRR-131" target="pRgywR5T7a0eV_t_xnRR-128" edge="1">
          <mxGeometry relative="1" as="geometry" />
        </mxCell>
        <mxCell id="pRgywR5T7a0eV_t_xnRR-131" value="User_ID" style="ellipse;whiteSpace=wrap;html=1;" parent="1" vertex="1">
          <mxGeometry x="-657" y="762.5" width="63" height="44" as="geometry" />
        </mxCell>
        <mxCell id="pRgywR5T7a0eV_t_xnRR-132" value="Created_at" style="ellipse;whiteSpace=wrap;html=1;" parent="1" vertex="1">
          <mxGeometry x="-270" y="737.25" width="63" height="44" as="geometry" />
        </mxCell>
        <mxCell id="pRgywR5T7a0eV_t_xnRR-133" value="&lt;font style=&quot;font-size: 9px;&quot;&gt;Change_&lt;/font&gt;&lt;div&gt;&lt;font style=&quot;font-size: 9px;&quot;&gt;summary&lt;/font&gt;&lt;/div&gt;" style="ellipse;whiteSpace=wrap;html=1;" parent="1" vertex="1">
          <mxGeometry x="-450" y="825.5" width="63" height="44" as="geometry" />
        </mxCell>
        <mxCell id="pRgywR5T7a0eV_t_xnRR-134" value="&lt;font size=&quot;1&quot;&gt;Changed_by&lt;/font&gt;" style="ellipse;whiteSpace=wrap;html=1;" parent="1" vertex="1">
          <mxGeometry x="-594" y="794.25" width="63" height="44" as="geometry" />
        </mxCell>
        <mxCell id="pRgywR5T7a0eV_t_xnRR-135" value="&lt;font&gt;new_data&lt;/font&gt;" style="ellipse;whiteSpace=wrap;html=1;" parent="1" vertex="1">
          <mxGeometry x="-315" y="781.25" width="63" height="44" as="geometry" />
        </mxCell>
        <mxCell id="pRgywR5T7a0eV_t_xnRR-136" value="&lt;font&gt;Prev_data&lt;/font&gt;" style="ellipse;whiteSpace=wrap;html=1;" parent="1" vertex="1">
          <mxGeometry x="-378" y="818.25" width="63" height="44" as="geometry" />
        </mxCell>
        <mxCell id="pRgywR5T7a0eV_t_xnRR-137" style="rounded=0;orthogonalLoop=1;jettySize=auto;html=1;exitX=1;exitY=0;exitDx=0;exitDy=0;endArrow=none;endFill=0;entryX=0.133;entryY=1;entryDx=0;entryDy=0;entryPerimeter=0;" parent="1" source="pRgywR5T7a0eV_t_xnRR-130" target="pRgywR5T7a0eV_t_xnRR-128" edge="1">
          <mxGeometry relative="1" as="geometry">
            <mxPoint x="-492" y="689.5" as="targetPoint" />
          </mxGeometry>
        </mxCell>
        <mxCell id="pRgywR5T7a0eV_t_xnRR-139" style="rounded=0;orthogonalLoop=1;jettySize=auto;html=1;exitX=0.5;exitY=0;exitDx=0;exitDy=0;entryX=0.332;entryY=1.003;entryDx=0;entryDy=0;entryPerimeter=0;endArrow=none;endFill=0;" parent="1" source="pRgywR5T7a0eV_t_xnRR-134" target="pRgywR5T7a0eV_t_xnRR-128" edge="1">
          <mxGeometry relative="1" as="geometry" />
        </mxCell>
        <mxCell id="pRgywR5T7a0eV_t_xnRR-141" style="rounded=0;orthogonalLoop=1;jettySize=auto;html=1;exitX=0.5;exitY=0;exitDx=0;exitDy=0;entryX=0.585;entryY=0.988;entryDx=0;entryDy=0;entryPerimeter=0;endArrow=none;endFill=0;" parent="1" source="pRgywR5T7a0eV_t_xnRR-133" target="pRgywR5T7a0eV_t_xnRR-128" edge="1">
          <mxGeometry relative="1" as="geometry" />
        </mxCell>
        <mxCell id="pRgywR5T7a0eV_t_xnRR-142" style="rounded=0;orthogonalLoop=1;jettySize=auto;html=1;exitX=0.5;exitY=0;exitDx=0;exitDy=0;entryX=0.683;entryY=1.016;entryDx=0;entryDy=0;entryPerimeter=0;endArrow=none;endFill=0;" parent="1" source="pRgywR5T7a0eV_t_xnRR-136" target="pRgywR5T7a0eV_t_xnRR-128" edge="1">
          <mxGeometry relative="1" as="geometry" />
        </mxCell>
        <mxCell id="pRgywR5T7a0eV_t_xnRR-143" style="rounded=0;orthogonalLoop=1;jettySize=auto;html=1;exitX=0;exitY=0.5;exitDx=0;exitDy=0;entryX=0.779;entryY=0.996;entryDx=0;entryDy=0;entryPerimeter=0;endArrow=none;endFill=0;" parent="1" source="pRgywR5T7a0eV_t_xnRR-135" target="pRgywR5T7a0eV_t_xnRR-128" edge="1">
          <mxGeometry relative="1" as="geometry" />
        </mxCell>
        <mxCell id="pRgywR5T7a0eV_t_xnRR-144" style="rounded=0;orthogonalLoop=1;jettySize=auto;html=1;exitX=0;exitY=0.5;exitDx=0;exitDy=0;entryX=0.858;entryY=1.003;entryDx=0;entryDy=0;entryPerimeter=0;endArrow=none;endFill=0;" parent="1" source="pRgywR5T7a0eV_t_xnRR-132" target="pRgywR5T7a0eV_t_xnRR-128" edge="1">
          <mxGeometry relative="1" as="geometry" />
        </mxCell>
        <mxCell id="FAk4UDNb7Ghxpzfor9Uz-13" style="edgeStyle=orthogonalEdgeStyle;rounded=0;orthogonalLoop=1;jettySize=auto;html=1;exitX=0.5;exitY=0;exitDx=0;exitDy=0;endArrow=none;endFill=0;" parent="1" source="FAk4UDNb7Ghxpzfor9Uz-1" target="NpZJ7TeURYDDHtTlFA_u-284" edge="1">
          <mxGeometry relative="1" as="geometry" />
        </mxCell>
        <mxCell id="FAk4UDNb7Ghxpzfor9Uz-1" value="product_images" style="rounded=0;whiteSpace=wrap;html=1;" parent="1" vertex="1">
          <mxGeometry x="-1320" y="1071" width="108" height="60" as="geometry" />
        </mxCell>
        <mxCell id="FAk4UDNb7Ghxpzfor9Uz-3" value="" style="ellipse;whiteSpace=wrap;html=1;" parent="1" vertex="1">
          <mxGeometry x="-1539" y="1008" width="63" height="44" as="geometry" />
        </mxCell>
        <mxCell id="FAk4UDNb7Ghxpzfor9Uz-4" value="Product_ID" style="ellipse;whiteSpace=wrap;html=1;" parent="1" vertex="1">
          <mxGeometry x="-1539" y="1087" width="63" height="44" as="geometry" />
        </mxCell>
        <mxCell id="FAk4UDNb7Ghxpzfor9Uz-5" value="" style="ellipse;whiteSpace=wrap;html=1;" parent="1" vertex="1">
          <mxGeometry x="-1537.5" y="1148" width="63" height="44" as="geometry" />
        </mxCell>
        <mxCell id="FAk4UDNb7Ghxpzfor9Uz-6" value="ID" style="text;html=1;align=center;verticalAlign=middle;whiteSpace=wrap;rounded=0;" parent="1" vertex="1">
          <mxGeometry x="-1537.5" y="1015" width="60" height="30" as="geometry" />
        </mxCell>
        <mxCell id="FAk4UDNb7Ghxpzfor9Uz-7" value="URL" style="text;html=1;align=center;verticalAlign=middle;whiteSpace=wrap;rounded=0;" parent="1" vertex="1">
          <mxGeometry x="-1537.5" y="1155" width="60" height="30" as="geometry" />
        </mxCell>
        <mxCell id="FAk4UDNb7Ghxpzfor9Uz-8" value="" style="endArrow=none;html=1;rounded=0;exitX=1;exitY=0.5;exitDx=0;exitDy=0;entryX=0;entryY=0.75;entryDx=0;entryDy=0;" parent="1" source="FAk4UDNb7Ghxpzfor9Uz-7" target="FAk4UDNb7Ghxpzfor9Uz-1" edge="1">
          <mxGeometry width="50" height="50" relative="1" as="geometry">
            <mxPoint x="-525" y="1361" as="sourcePoint" />
            <mxPoint x="-475" y="1311" as="targetPoint" />
          </mxGeometry>
        </mxCell>
        <mxCell id="FAk4UDNb7Ghxpzfor9Uz-9" value="" style="endArrow=none;html=1;rounded=0;exitX=1;exitY=0.5;exitDx=0;exitDy=0;entryX=0;entryY=0.5;entryDx=0;entryDy=0;" parent="1" source="FAk4UDNb7Ghxpzfor9Uz-4" target="FAk4UDNb7Ghxpzfor9Uz-1" edge="1">
          <mxGeometry width="50" height="50" relative="1" as="geometry">
            <mxPoint x="-1047" y="1164" as="sourcePoint" />
            <mxPoint x="-997" y="1114" as="targetPoint" />
          </mxGeometry>
        </mxCell>
        <mxCell id="FAk4UDNb7Ghxpzfor9Uz-10" value="" style="endArrow=none;html=1;rounded=0;exitX=1;exitY=0.5;exitDx=0;exitDy=0;entryX=0;entryY=0.25;entryDx=0;entryDy=0;" parent="1" source="FAk4UDNb7Ghxpzfor9Uz-6" target="FAk4UDNb7Ghxpzfor9Uz-1" edge="1">
          <mxGeometry width="50" height="50" relative="1" as="geometry">
            <mxPoint x="-1047" y="1164" as="sourcePoint" />
            <mxPoint x="-997" y="1114" as="targetPoint" />
          </mxGeometry>
        </mxCell>
        <mxCell id="FAk4UDNb7Ghxpzfor9Uz-11" value="Is_primary" style="ellipse;whiteSpace=wrap;html=1;" parent="1" vertex="1">
          <mxGeometry x="-1527" y="1206" width="63" height="44" as="geometry" />
        </mxCell>
        <mxCell id="FAk4UDNb7Ghxpzfor9Uz-12" style="rounded=0;orthogonalLoop=1;jettySize=auto;html=1;exitX=1;exitY=0;exitDx=0;exitDy=0;entryX=0.008;entryY=0.857;entryDx=0;entryDy=0;entryPerimeter=0;endArrow=none;endFill=0;" parent="1" source="FAk4UDNb7Ghxpzfor9Uz-11" target="FAk4UDNb7Ghxpzfor9Uz-1" edge="1">
          <mxGeometry relative="1" as="geometry" />
        </mxCell>
        <mxCell id="FAk4UDNb7Ghxpzfor9Uz-44" style="edgeStyle=orthogonalEdgeStyle;rounded=0;orthogonalLoop=1;jettySize=auto;html=1;entryX=0.5;entryY=1;entryDx=0;entryDy=0;endArrow=none;endFill=0;" parent="1" source="FAk4UDNb7Ghxpzfor9Uz-14" target="FAk4UDNb7Ghxpzfor9Uz-42" edge="1">
          <mxGeometry relative="1" as="geometry" />
        </mxCell>
        <mxCell id="FAk4UDNb7Ghxpzfor9Uz-45" style="edgeStyle=orthogonalEdgeStyle;rounded=0;orthogonalLoop=1;jettySize=auto;html=1;entryX=0.5;entryY=1;entryDx=0;entryDy=0;endArrow=none;endFill=0;" parent="1" source="vp1S7P82g0XWWJx4SRCY-1" target="FAk4UDNb7Ghxpzfor9Uz-29" edge="1">
          <mxGeometry relative="1" as="geometry" />
        </mxCell>
        <mxCell id="FAk4UDNb7Ghxpzfor9Uz-14" value="Cart_Items" style="rounded=0;whiteSpace=wrap;html=1;" parent="1" vertex="1">
          <mxGeometry x="-1320" y="1438" width="108" height="60" as="geometry" />
        </mxCell>
        <mxCell id="FAk4UDNb7Ghxpzfor9Uz-15" value="ID" style="ellipse;whiteSpace=wrap;html=1;" parent="1" vertex="1">
          <mxGeometry x="-1507.5" y="1332" width="63" height="44" as="geometry" />
        </mxCell>
        <mxCell id="FAk4UDNb7Ghxpzfor9Uz-25" style="rounded=0;orthogonalLoop=1;jettySize=auto;html=1;endArrow=none;endFill=0;entryX=-0.003;entryY=0.193;entryDx=0;entryDy=0;entryPerimeter=0;" parent="1" source="FAk4UDNb7Ghxpzfor9Uz-16" target="FAk4UDNb7Ghxpzfor9Uz-14" edge="1">
          <mxGeometry relative="1" as="geometry">
            <mxPoint x="-1320" y="1449" as="targetPoint" />
          </mxGeometry>
        </mxCell>
        <mxCell id="FAk4UDNb7Ghxpzfor9Uz-16" value="Order_ID" style="ellipse;whiteSpace=wrap;html=1;" parent="1" vertex="1">
          <mxGeometry x="-1509" y="1393" width="63" height="44" as="geometry" />
        </mxCell>
        <mxCell id="FAk4UDNb7Ghxpzfor9Uz-26" style="rounded=0;orthogonalLoop=1;jettySize=auto;html=1;entryX=0;entryY=0.5;entryDx=0;entryDy=0;endArrow=none;endFill=0;" parent="1" source="FAk4UDNb7Ghxpzfor9Uz-17" target="FAk4UDNb7Ghxpzfor9Uz-14" edge="1">
          <mxGeometry relative="1" as="geometry" />
        </mxCell>
        <mxCell id="FAk4UDNb7Ghxpzfor9Uz-17" value="" style="ellipse;whiteSpace=wrap;html=1;" parent="1" vertex="1">
          <mxGeometry x="-1507.5" y="1454" width="63" height="44" as="geometry" />
        </mxCell>
        <mxCell id="FAk4UDNb7Ghxpzfor9Uz-19" value="Quantity" style="text;html=1;align=center;verticalAlign=middle;whiteSpace=wrap;rounded=0;" parent="1" vertex="1">
          <mxGeometry x="-1507.5" y="1461" width="60" height="30" as="geometry" />
        </mxCell>
        <mxCell id="FAk4UDNb7Ghxpzfor9Uz-27" style="rounded=0;orthogonalLoop=1;jettySize=auto;html=1;entryX=0;entryY=0.75;entryDx=0;entryDy=0;endArrow=none;endFill=0;" parent="1" source="FAk4UDNb7Ghxpzfor9Uz-20" target="FAk4UDNb7Ghxpzfor9Uz-14" edge="1">
          <mxGeometry relative="1" as="geometry" />
        </mxCell>
        <mxCell id="FAk4UDNb7Ghxpzfor9Uz-20" value="Unit_price" style="ellipse;whiteSpace=wrap;html=1;" parent="1" vertex="1">
          <mxGeometry x="-1497" y="1512" width="63" height="44" as="geometry" />
        </mxCell>
        <mxCell id="FAk4UDNb7Ghxpzfor9Uz-21" value="" style="ellipse;whiteSpace=wrap;html=1;" parent="1" vertex="1">
          <mxGeometry x="-1479" y="1575" width="63" height="44" as="geometry" />
        </mxCell>
        <mxCell id="FAk4UDNb7Ghxpzfor9Uz-28" style="rounded=0;orthogonalLoop=1;jettySize=auto;html=1;endArrow=none;endFill=0;entryX=0.001;entryY=0.841;entryDx=0;entryDy=0;entryPerimeter=0;exitX=0.827;exitY=0.083;exitDx=0;exitDy=0;exitPerimeter=0;" parent="1" source="FAk4UDNb7Ghxpzfor9Uz-21" target="FAk4UDNb7Ghxpzfor9Uz-14" edge="1">
          <mxGeometry relative="1" as="geometry">
            <mxPoint x="-1311" y="1485" as="targetPoint" />
          </mxGeometry>
        </mxCell>
        <mxCell id="FAk4UDNb7Ghxpzfor9Uz-22" value="Added_at" style="text;html=1;align=center;verticalAlign=middle;whiteSpace=wrap;rounded=0;" parent="1" vertex="1">
          <mxGeometry x="-1479" y="1582" width="60" height="30" as="geometry" />
        </mxCell>
        <mxCell id="FAk4UDNb7Ghxpzfor9Uz-24" style="rounded=0;orthogonalLoop=1;jettySize=auto;html=1;entryX=0;entryY=0;entryDx=0;entryDy=0;endArrow=none;endFill=0;" parent="1" source="FAk4UDNb7Ghxpzfor9Uz-15" target="FAk4UDNb7Ghxpzfor9Uz-14" edge="1">
          <mxGeometry relative="1" as="geometry" />
        </mxCell>
        <mxCell id="vp1S7P82g0XWWJx4SRCY-4" style="edgeStyle=orthogonalEdgeStyle;rounded=0;orthogonalLoop=1;jettySize=auto;html=1;entryX=0.5;entryY=1;entryDx=0;entryDy=0;endArrow=none;endFill=0;" parent="1" source="FAk4UDNb7Ghxpzfor9Uz-29" target="vp1S7P82g0XWWJx4SRCY-3" edge="1">
          <mxGeometry relative="1" as="geometry" />
        </mxCell>
        <mxCell id="FAk4UDNb7Ghxpzfor9Uz-29" value="Shopping_Carts" style="rounded=0;whiteSpace=wrap;html=1;" parent="1" vertex="1">
          <mxGeometry x="-393" y="1150" width="108" height="60" as="geometry" />
        </mxCell>
        <mxCell id="FAk4UDNb7Ghxpzfor9Uz-30" value="ID" style="ellipse;whiteSpace=wrap;html=1;" parent="1" vertex="1">
          <mxGeometry x="-583.5" y="1080" width="63" height="44" as="geometry" />
        </mxCell>
        <mxCell id="FAk4UDNb7Ghxpzfor9Uz-31" style="rounded=0;orthogonalLoop=1;jettySize=auto;html=1;endArrow=none;endFill=0;entryX=-0.003;entryY=0.193;entryDx=0;entryDy=0;entryPerimeter=0;" parent="1" source="FAk4UDNb7Ghxpzfor9Uz-32" target="FAk4UDNb7Ghxpzfor9Uz-29" edge="1">
          <mxGeometry relative="1" as="geometry">
            <mxPoint x="-396" y="1161" as="targetPoint" />
          </mxGeometry>
        </mxCell>
        <mxCell id="FAk4UDNb7Ghxpzfor9Uz-32" value="User_ID" style="ellipse;whiteSpace=wrap;html=1;" parent="1" vertex="1">
          <mxGeometry x="-585" y="1141" width="63" height="44" as="geometry" />
        </mxCell>
        <mxCell id="FAk4UDNb7Ghxpzfor9Uz-33" style="rounded=0;orthogonalLoop=1;jettySize=auto;html=1;entryX=0;entryY=0.5;entryDx=0;entryDy=0;endArrow=none;endFill=0;" parent="1" source="FAk4UDNb7Ghxpzfor9Uz-34" target="FAk4UDNb7Ghxpzfor9Uz-29" edge="1">
          <mxGeometry relative="1" as="geometry" />
        </mxCell>
        <mxCell id="FAk4UDNb7Ghxpzfor9Uz-34" value="" style="ellipse;whiteSpace=wrap;html=1;" parent="1" vertex="1">
          <mxGeometry x="-583.5" y="1202" width="63" height="44" as="geometry" />
        </mxCell>
        <mxCell id="FAk4UDNb7Ghxpzfor9Uz-35" value="Created_at" style="text;html=1;align=center;verticalAlign=middle;whiteSpace=wrap;rounded=0;" parent="1" vertex="1">
          <mxGeometry x="-583.5" y="1209" width="60" height="30" as="geometry" />
        </mxCell>
        <mxCell id="FAk4UDNb7Ghxpzfor9Uz-36" style="rounded=0;orthogonalLoop=1;jettySize=auto;html=1;entryX=0;entryY=0.75;entryDx=0;entryDy=0;endArrow=none;endFill=0;" parent="1" source="FAk4UDNb7Ghxpzfor9Uz-37" target="FAk4UDNb7Ghxpzfor9Uz-29" edge="1">
          <mxGeometry relative="1" as="geometry" />
        </mxCell>
        <mxCell id="FAk4UDNb7Ghxpzfor9Uz-37" value="Updated_at" style="ellipse;whiteSpace=wrap;html=1;" parent="1" vertex="1">
          <mxGeometry x="-573" y="1260" width="63" height="44" as="geometry" />
        </mxCell>
        <mxCell id="FAk4UDNb7Ghxpzfor9Uz-41" style="rounded=0;orthogonalLoop=1;jettySize=auto;html=1;entryX=0;entryY=0;entryDx=0;entryDy=0;endArrow=none;endFill=0;" parent="1" source="FAk4UDNb7Ghxpzfor9Uz-30" target="FAk4UDNb7Ghxpzfor9Uz-29" edge="1">
          <mxGeometry relative="1" as="geometry" />
        </mxCell>
        <mxCell id="FAk4UDNb7Ghxpzfor9Uz-43" style="edgeStyle=orthogonalEdgeStyle;rounded=0;orthogonalLoop=1;jettySize=auto;html=1;exitX=0.5;exitY=0;exitDx=0;exitDy=0;entryX=0.5;entryY=1;entryDx=0;entryDy=0;endArrow=none;endFill=0;" parent="1" source="FAk4UDNb7Ghxpzfor9Uz-42" target="FAk4UDNb7Ghxpzfor9Uz-1" edge="1">
          <mxGeometry relative="1" as="geometry" />
        </mxCell>
        <mxCell id="FAk4UDNb7Ghxpzfor9Uz-42" value="Shown as" style="rhombus;whiteSpace=wrap;html=1;" parent="1" vertex="1">
          <mxGeometry x="-1301.5" y="1260" width="71" height="62" as="geometry" />
        </mxCell>
        <mxCell id="vp1S7P82g0XWWJx4SRCY-2" value="" style="edgeStyle=orthogonalEdgeStyle;rounded=0;orthogonalLoop=1;jettySize=auto;html=1;entryX=0;entryY=0.5;entryDx=0;entryDy=0;endArrow=none;endFill=0;" parent="1" source="FAk4UDNb7Ghxpzfor9Uz-14" target="vp1S7P82g0XWWJx4SRCY-1" edge="1">
          <mxGeometry relative="1" as="geometry">
            <mxPoint x="-1212" y="1468" as="sourcePoint" />
            <mxPoint x="-339" y="1210" as="targetPoint" />
          </mxGeometry>
        </mxCell>
        <mxCell id="vp1S7P82g0XWWJx4SRCY-1" value="Contains" style="rhombus;whiteSpace=wrap;html=1;" parent="1" vertex="1">
          <mxGeometry x="-864" y="1437" width="71" height="62" as="geometry" />
        </mxCell>
        <mxCell id="vp1S7P82g0XWWJx4SRCY-5" style="edgeStyle=orthogonalEdgeStyle;rounded=0;orthogonalLoop=1;jettySize=auto;html=1;entryX=0;entryY=0.5;entryDx=0;entryDy=0;endArrow=none;endFill=0;" parent="1" source="vp1S7P82g0XWWJx4SRCY-3" target="pRgywR5T7a0eV_t_xnRR-56" edge="1">
          <mxGeometry relative="1" as="geometry">
            <Array as="points">
              <mxPoint x="-190" y="775" />
            </Array>
          </mxGeometry>
        </mxCell>
        <mxCell id="vp1S7P82g0XWWJx4SRCY-3" value="Owned by" style="rhombus;whiteSpace=wrap;html=1;" parent="1" vertex="1">
          <mxGeometry x="-225" y="959.7" width="71" height="62" as="geometry" />
        </mxCell>
      </root>
    </mxGraphModel>
  </diagram>
</mxfile>
